<svg xmlns="http://www.w3.org/2000/svg" xmlns:xlink="http://www.w3.org/1999/xlink" version="1.1" width="256" height="256" viewBox="0 0 256 256" xml:space="preserve">

<defs>
</defs>
<g style="stroke: none; stroke-width: 0; stroke-dasharray: none; stroke-linecap: butt; stroke-linejoin: miter; stroke-miterlimit: 10; fill: none; fill-rule: nonzero; opacity: 1;" transform="translate(1.4065934065934016 1.4065934065934016) scale(2.81 2.81)" >
	<path d="M 72.489 61.548 c -4.454 0 -8.077 -3.623 -8.077 -8.077 s 3.623 -8.077 8.077 -8.077 s 8.077 3.623 8.077 8.077 S 76.943 61.548 72.489 61.548 z M 72.489 47.393 c -3.351 0 -6.077 2.727 -6.077 6.077 s 2.727 6.077 6.077 6.077 s 6.077 -2.727 6.077 -6.077 S 75.839 47.393 72.489 47.393 z" style="stroke: none; stroke-width: 1; stroke-dasharray: none; stroke-linecap: butt; stroke-linejoin: miter; stroke-miterlimit: 10; fill: rgb(0,0,0); fill-rule: nonzero; opacity: 1;" transform=" matrix(1 0 0 1 0 0) " stroke-linecap="round" />
	<path d="M 17.5 61.548 c -4.454 0 -8.077 -3.623 -8.077 -8.077 s 3.623 -8.077 8.077 -8.077 s 8.077 3.623 8.077 8.077 S 21.954 61.548 17.5 61.548 z M 17.5 47.393 c -3.351 0 -6.077 2.727 -6.077 6.077 s 2.726 6.077 6.077 6.077 s 6.077 -2.727 6.077 -6.077 S 20.851 47.393 17.5 47.393 z" style="stroke: none; stroke-width: 1; stroke-dasharray: none; stroke-linecap: butt; stroke-linejoin: miter; stroke-miterlimit: 10; fill: rgb(0,0,0); fill-rule: nonzero; opacity: 1;" transform=" matrix(1 0 0 1 0 0) " stroke-linecap="round" />
	<path d="M 11.077 57.442 c -0.113 0 -0.229 -0.02 -0.341 -0.061 l -8.347 -3.032 c -1.691 -0.613 -2.684 -2.403 -2.309 -4.163 l 1.94 -9.108 c 0.385 -1.804 1.867 -3.21 3.688 -3.5 l 8.341 -1.325 c 0.544 -0.085 1.058 0.285 1.145 0.831 c 0.086 0.545 -0.286 1.058 -0.831 1.145 L 6.02 39.554 c -1.01 0.16 -1.832 0.94 -2.045 1.941 l -1.94 9.107 c -0.168 0.789 0.277 1.592 1.036 1.867 l 8.347 3.033 c 0.519 0.188 0.787 0.762 0.599 1.281 C 11.869 57.19 11.485 57.442 11.077 57.442 z" style="stroke: none; stroke-width: 1; stroke-dasharray: none; stroke-linecap: butt; stroke-linejoin: miter; stroke-miterlimit: 10; fill: rgb(0,0,0); fill-rule: nonzero; opacity: 1;" transform=" matrix(1 0 0 1 0 0) " stroke-linecap="round" />
	<path d="M 78.911 57.442 c -0.504 0 -0.938 -0.38 -0.993 -0.892 c -0.06 -0.55 0.337 -1.043 0.886 -1.103 l 7.334 -0.797 c 0.581 -0.063 1.094 -0.354 1.444 -0.821 c 0.351 -0.466 0.488 -1.04 0.387 -1.614 c -0.938 -5.346 -5.18 -9.442 -10.555 -10.193 l -18.996 -2.651 c -0.195 -0.027 -0.378 -0.112 -0.525 -0.243 c -3.799 -3.376 -8.875 -6.318 -15.089 -8.745 c -0.515 -0.201 -0.769 -0.781 -0.568 -1.295 c 0.201 -0.514 0.779 -0.767 1.295 -0.568 c 6.312 2.466 11.511 5.463 15.461 8.912 l 18.7 2.61 c 6.237 0.871 11.159 5.624 12.248 11.827 c 0.194 1.109 -0.082 2.262 -0.759 3.162 c -0.677 0.9 -1.707 1.486 -2.827 1.607 l -7.333 0.797 C 78.983 57.44 78.947 57.442 78.911 57.442 z" style="stroke: none; stroke-width: 1; stroke-dasharray: none; stroke-linecap: butt; stroke-linejoin: miter; stroke-miterlimit: 10; fill: rgb(0,0,0); fill-rule: nonzero; opacity: 1;" transform=" matrix(1 0 0 1 0 0) " stroke-linecap="round" />
	<path d="M 66.066 57.442 H 23.925 c -0.552 0 -1 -0.447 -1 -1 s 0.448 -1 1 -1 h 42.141 c 0.553 0 1 0.447 1 1 S 66.618 57.442 66.066 57.442 z" style="stroke: none; stroke-width: 1; stroke-dasharray: none; stroke-linecap: butt; stroke-linejoin: miter; stroke-miterlimit: 10; fill: rgb(0,0,0); fill-rule: nonzero; opacity: 1;" transform=" matrix(1 0 0 1 0 0) " stroke-linecap="round" />
	<path d="M 49.312 41.455 c -0.214 0 -0.428 -0.003 -0.642 -0.009 l -19.631 -0.762 c -1.996 -0.058 -4.011 -0.285 -5.978 -0.674 l -9.05 -1.788 c -0.542 -0.107 -0.894 -0.633 -0.787 -1.175 c 0.107 -0.541 0.633 -0.894 1.175 -0.787 l 9.05 1.788 c 1.859 0.367 3.763 0.582 5.658 0.637 l 19.632 0.762 c 2.961 0.084 5.986 -0.494 8.718 -1.68 l 0.701 -0.304 c 0.504 -0.22 1.095 0.013 1.314 0.52 c 0.22 0.507 -0.013 1.096 -0.52 1.315 l -0.7 0.304 C 55.45 40.819 52.372 41.455 49.312 41.455 z" style="stroke: none; stroke-width: 1; stroke-dasharray: none; stroke-linecap: butt; stroke-linejoin: miter; stroke-miterlimit: 10; fill: rgb(0,0,0); fill-rule: nonzero; opacity: 1;" transform=" matrix(1 0 0 1 0 0) " stroke-linecap="round" />
	<path d="M 72.491 54.47 c -0.271 0 -0.521 -0.1 -0.71 -0.29 c -0.19 -0.189 -0.29 -0.439 -0.29 -0.71 c 0 -0.13 0.02 -0.26 0.069 -0.38 c 0.05 -0.12 0.13 -0.23 0.221 -0.33 c 0.09 -0.09 0.199 -0.16 0.319 -0.21 c 0.38 -0.16 0.82 -0.07 1.09 0.21 c 0.101 0.1 0.17 0.21 0.221 0.33 c 0.05 0.12 0.08 0.25 0.08 0.38 c 0 0.271 -0.11 0.521 -0.301 0.71 c -0.09 0.09 -0.199 0.16 -0.319 0.21 C 72.75 54.439 72.62 54.47 72.491 54.47 z" style="stroke: none; stroke-width: 1; stroke-dasharray: none; stroke-linecap: butt; stroke-linejoin: miter; stroke-miterlimit: 10; fill: rgb(0,0,0); fill-rule: nonzero; opacity: 1;" transform=" matrix(1 0 0 1 0 0) " stroke-linecap="round" />
	<path d="M 17.499 54.47 c -0.27 0 -0.52 -0.1 -0.71 -0.29 c -0.09 -0.1 -0.16 -0.21 -0.21 -0.33 c -0.05 -0.12 -0.08 -0.25 -0.08 -0.38 s 0.03 -0.26 0.08 -0.38 c 0.05 -0.12 0.12 -0.24 0.21 -0.33 c 0.38 -0.37 1.04 -0.37 1.42 0 c 0.18 0.19 0.29 0.45 0.29 0.71 c 0 0.13 -0.02 0.26 -0.07 0.38 c -0.05 0.12 -0.13 0.23 -0.22 0.33 C 18.019 54.37 17.769 54.47 17.499 54.47 z" style="stroke: none; stroke-width: 1; stroke-dasharray: none; stroke-linecap: butt; stroke-linejoin: miter; stroke-miterlimit: 10; fill: rgb(0,0,0); fill-rule: nonzero; opacity: 1;" transform=" matrix(1 0 0 1 0 0) " stroke-linecap="round" />
	<path d="M 38.643 40.993 c -0.402 0 -0.781 -0.245 -0.934 -0.643 l -1.857 -4.851 c -0.197 -0.516 0.061 -1.094 0.577 -1.292 c 0.515 -0.197 1.094 0.061 1.292 0.577 l 1.857 4.851 c 0.197 0.516 -0.061 1.094 -0.577 1.292 C 38.883 40.971 38.762 40.993 38.643 40.993 z" style="stroke: none; stroke-width: 1; stroke-dasharray: none; stroke-linecap: butt; stroke-linejoin: miter; stroke-miterlimit: 10; fill: rgb(0,0,0); fill-rule: nonzero; opacity: 1;" transform=" matrix(1 0 0 1 0 0) " stroke-linecap="round" />
	<path d="M 25.656 40.418 c -0.412 0 -0.797 -0.256 -0.942 -0.666 l -1.442 -4.066 c -0.185 -0.521 0.087 -1.092 0.608 -1.277 c 0.521 -0.185 1.092 0.088 1.277 0.608 l 1.442 4.066 c 0.185 0.521 -0.087 1.092 -0.608 1.277 C 25.879 40.399 25.766 40.418 25.656 40.418 z" style="stroke: none; stroke-width: 1; stroke-dasharray: none; stroke-linecap: butt; stroke-linejoin: miter; stroke-miterlimit: 10; fill: rgb(0,0,0); fill-rule: nonzero; opacity: 1;" transform=" matrix(1 0 0 1 0 0) " stroke-linecap="round" />
</g>
</svg>