<svg xmlns="http://www.w3.org/2000/svg" xmlns:xlink="http://www.w3.org/1999/xlink" version="1.1" width="256" height="256" viewBox="0 0 256 256" xml:space="preserve">

<defs>
</defs>
<g style="stroke: none; stroke-width: 0; stroke-dasharray: none; stroke-linecap: butt; stroke-linejoin: miter; stroke-miterlimit: 10; fill: none; fill-rule: nonzero; opacity: 1;" transform="translate(1.4065934065934016 1.4065934065934016) scale(2.81 2.81)" >
	<path d="M 73.594 65.964 c -4.959 0 -8.993 -4.034 -8.993 -8.993 s 4.034 -8.993 8.993 -8.993 s 8.993 4.034 8.993 8.993 S 78.553 65.964 73.594 65.964 z M 73.594 49.977 c -3.856 0 -6.993 3.137 -6.993 6.993 s 3.137 6.993 6.993 6.993 s 6.993 -3.137 6.993 -6.993 S 77.45 49.977 73.594 49.977 z" style="stroke: none; stroke-width: 1; stroke-dasharray: none; stroke-linecap: butt; stroke-linejoin: miter; stroke-miterlimit: 10; fill: rgb(0,0,0); fill-rule: nonzero; opacity: 1;" transform=" matrix(1 0 0 1 0 0) " stroke-linecap="round" />
	<path d="M 14.949 65.964 c -4.959 0 -8.993 -4.034 -8.993 -8.993 s 4.034 -8.993 8.993 -8.993 s 8.993 4.034 8.993 8.993 S 19.908 65.964 14.949 65.964 z M 14.949 49.977 c -3.856 0 -6.993 3.137 -6.993 6.993 s 3.137 6.993 6.993 6.993 s 6.993 -3.137 6.993 -6.993 S 18.805 49.977 14.949 49.977 z" style="stroke: none; stroke-width: 1; stroke-dasharray: none; stroke-linecap: butt; stroke-linejoin: miter; stroke-miterlimit: 10; fill: rgb(0,0,0); fill-rule: nonzero; opacity: 1;" transform=" matrix(1 0 0 1 0 0) " stroke-linecap="round" />
	<path d="M 80.847 61.327 c -0.483 0 -0.908 -0.351 -0.986 -0.843 c -0.087 -0.545 0.284 -1.058 0.83 -1.145 l 5.029 -0.803 c 1.321 -0.211 2.28 -1.336 2.28 -2.674 c 0 -7.233 -4.891 -13.549 -11.893 -15.361 l -7.765 -2.009 c -0.149 -0.039 -0.288 -0.112 -0.404 -0.213 l -5.079 -4.411 c -5.816 -5.05 -13.26 -7.832 -20.961 -7.832 H 24.144 c -2.392 0 -4.644 0.929 -6.34 2.616 L 9.326 37.08 c -3.377 3.358 -5.612 7.61 -6.462 12.299 l -0.827 4.56 c -0.172 0.949 0.266 1.925 1.089 2.428 l 5.089 3.107 c 0.472 0.288 0.62 0.903 0.333 1.375 c -0.288 0.472 -0.903 0.62 -1.375 0.332 l -5.089 -3.107 c -1.523 -0.93 -2.333 -2.735 -2.015 -4.492 l 0.827 -4.56 c 0.923 -5.092 3.351 -9.712 7.02 -13.359 l 8.478 -8.428 c 2.074 -2.062 4.827 -3.197 7.751 -3.197 h 17.754 c 8.184 0 16.093 2.956 22.272 8.322 l 4.902 4.257 l 7.536 1.95 C 84.493 40.606 90 47.719 90 55.863 c 0 2.327 -1.668 4.282 -3.966 4.649 l -5.029 0.803 C 80.952 61.323 80.898 61.327 80.847 61.327 z" style="stroke: none; stroke-width: 1; stroke-dasharray: none; stroke-linecap: butt; stroke-linejoin: miter; stroke-miterlimit: 10; fill: rgb(0,0,0); fill-rule: nonzero; opacity: 1;" transform=" matrix(1 0 0 1 0 0) " stroke-linecap="round" />
	<path d="M 66.339 61.327 H 22.205 c -0.552 0 -1 -0.447 -1 -1 s 0.448 -1 1 -1 h 44.133 c 0.553 0 1 0.447 1 1 S 66.891 61.327 66.339 61.327 z" style="stroke: none; stroke-width: 1; stroke-dasharray: none; stroke-linecap: butt; stroke-linejoin: miter; stroke-miterlimit: 10; fill: rgb(0,0,0); fill-rule: nonzero; opacity: 1;" transform=" matrix(1 0 0 1 0 0) " stroke-linecap="round" />
	<path d="M 73.59 57.971 c -0.13 0 -0.26 -0.03 -0.38 -0.08 c -0.12 -0.05 -0.23 -0.12 -0.32 -0.21 c -0.1 -0.1 -0.17 -0.21 -0.22 -0.33 c -0.05 -0.12 -0.08 -0.25 -0.08 -0.38 c 0 -0.27 0.11 -0.52 0.3 -0.71 c 0.37 -0.37 1.04 -0.37 1.41 0 c 0.19 0.19 0.29 0.45 0.29 0.71 c 0 0.13 -0.021 0.26 -0.07 0.38 c -0.05 0.12 -0.12 0.23 -0.22 0.33 c -0.09 0.09 -0.2 0.16 -0.32 0.21 C 73.849 57.94 73.729 57.971 73.59 57.971 z" style="stroke: none; stroke-width: 1; stroke-dasharray: none; stroke-linecap: butt; stroke-linejoin: miter; stroke-miterlimit: 10; fill: rgb(0,0,0); fill-rule: nonzero; opacity: 1;" transform=" matrix(1 0 0 1 0 0) " stroke-linecap="round" />
	<path d="M 14.949 57.971 c -0.27 0 -0.52 -0.1 -0.71 -0.29 c -0.19 -0.189 -0.29 -0.439 -0.29 -0.71 c 0 -0.13 0.03 -0.26 0.08 -0.38 c 0.05 -0.12 0.12 -0.23 0.21 -0.33 c 0.09 -0.09 0.2 -0.16 0.33 -0.21 c 0.24 -0.11 0.52 -0.11 0.76 0 c 0.12 0.05 0.23 0.12 0.33 0.21 c 0.09 0.1 0.16 0.21 0.21 0.33 c 0.05 0.12 0.08 0.25 0.08 0.38 c 0 0.271 -0.1 0.521 -0.29 0.71 C 15.469 57.871 15.219 57.971 14.949 57.971 z" style="stroke: none; stroke-width: 1; stroke-dasharray: none; stroke-linecap: butt; stroke-linejoin: miter; stroke-miterlimit: 10; fill: rgb(0,0,0); fill-rule: nonzero; opacity: 1;" transform=" matrix(1 0 0 1 0 0) " stroke-linecap="round" />
	<path d="M 68.593 38.525 h -44.25 c -1.397 0 -2.661 -0.653 -3.468 -1.793 c -0.807 -1.14 -1.005 -2.549 -0.542 -3.867 l 2.868 -8.16 c 0.183 -0.521 0.753 -0.795 1.275 -0.612 c 0.521 0.183 0.795 0.754 0.612 1.275 l -2.868 8.16 c -0.245 0.698 -0.14 1.444 0.287 2.047 c 0.428 0.603 1.097 0.949 1.836 0.949 h 44.25 c 0.553 0 1 0.448 1 1 S 69.146 38.525 68.593 38.525 z" style="stroke: none; stroke-width: 1; stroke-dasharray: none; stroke-linecap: butt; stroke-linejoin: miter; stroke-miterlimit: 10; fill: rgb(0,0,0); fill-rule: nonzero; opacity: 1;" transform=" matrix(1 0 0 1 0 0) " stroke-linecap="round" />
	<path d="M 40.005 38.525 c -0.49 0 -0.918 -0.361 -0.989 -0.86 l -1.765 -12.488 c -0.077 -0.547 0.303 -1.053 0.85 -1.13 c 0.544 -0.081 1.052 0.303 1.13 0.85 l 1.765 12.488 c 0.077 0.547 -0.303 1.053 -0.85 1.13 C 40.098 38.522 40.052 38.525 40.005 38.525 z" style="stroke: none; stroke-width: 1; stroke-dasharray: none; stroke-linecap: butt; stroke-linejoin: miter; stroke-miterlimit: 10; fill: rgb(0,0,0); fill-rule: nonzero; opacity: 1;" transform=" matrix(1 0 0 1 0 0) " stroke-linecap="round" />
</g>
</svg>